' This file contains the diagrams generated by PlantUML and used by Doxygen.
' It can be included also directly in the Doxygen documentation (e.g. the *.md files).
' To not blow up the Doxygen documentation, the template separate it in the *.pu files.
' Linking to the Doxygen documentation is done via the Diagram names (*.svg).
'
' Diagram created by an external tool (e.g. Visio) can be included in Doxygen also via the names.
' In this case, the diagrams must be exported as *.svg from the external tool.

'################################################################################################
'Abstract Block Diagram
'################################################################################################
@startuml AbstractBlockDiagram.svg
digraph BLOCK_DIAGRAM {
   graph [rankdir = LR, splines=ortho];
   node  [style=filled]
   BLOCK_DIAGRAM [ shape = component ]
   BLOCK_DIAGRAM [ label="CompSN", height = 3.0, fontsize="16", fontname="Arial"] /* 0.5 inch for each IN or OUT, depending on which is higher */
    {
        node [ style="filled" fillcolor="#0000003b" color="#0000003d" shape=cds fontname="Arial" width = 2.7 ]
        /* Inputs to the SW Component */   
        Input_1 [label="Input 01\l" ] 
        Input_2 [label="Input 02\l" ]
        Input_3 [label="Raw XYZ Values\l" ]

        node [ style="filled" fillcolor="#0000003b" color="#0000003d" shape=cds fontname="Arial" fixedsize=true width = 2.7]
        /* Outputs of the SW Component */
        Output_1[label="Output 01\l" ]
        Output_2[label="Output 02\l" ]
        Output_3[label="Filtered XYZ Values\l" ]
    }  
   {
      edge [arrowhead=none]
      {Input_1, Input_2, Input_3} -> BLOCK_DIAGRAM ;
   }
  {
     edge [arrowhead=none]
     BLOCK_DIAGRAM -> {Output_1, Output_2, Output_3 };
   }
}
@enduml

'################################################################################################
'Use-Case Diagrams
'################################################################################################
@startuml TopLevelUseCaseDiagram.svg
left to right direction
actor "SW-C Scheduling IF Actor" as COMP_A1
actor "SW-C Data IF Actor" as COMP_A2
actor "SW-C Control IF Actor" as COMP_A3
actor "OS" as COMP_A4
actor "Project Application Engineer" as PAE


rectangle "SW Component: CompSN" {
  usecase "Initialize CompSN HW" as UC1
  usecase "Initialize CompSN SW" as UC2
  usecase "Process CompSN Signals 10ms" as UC3
  usecase "Capture CompSN Signals 1ms" as UC4

  usecase "Get CompSN Signal Value" as UC5
  usecase "Read CompSN State" as UC6

  usecase "Set CompSN State" as UC7
  usecase "Write CompSN Signal Value" as UC8
  usecase "Service Interrupt X" as UC9

  usecase "Configure CompSN Signals" as UC10
  
}

COMP_A1 -- UC1
COMP_A1 -- UC2
COMP_A1 -- UC3
COMP_A1 -- UC4

UC5 -- COMP_A2
UC6 -- COMP_A2

UC7 -- COMP_A3
UC8 -- COMP_A3

COMP_A4 -- UC9

UC10 -- PAE

' Align Usecases using hidden connection for a better view

(UC1) -[hidden]- (UC5)
(UC2) -[hidden]- (UC6)
(UC3) -[hidden]- (UC7)
(UC4) -[hidden]- (UC8)
(UC9) -[hidden]- (UC10)


@enduml

'------------------------------------------------------------------------------------------------


'################################################################################################
'Conceptual Diagrams
'################################################################################################

'------------------------------------------------------------------------------------------------
'Timing Diagrams
'------------------------------------------------------------------------------------------------
@startuml TimingDiagramOption1.svg
concise "Micro Kernel" as MK
concise "Startup C" as SC
concise "Startup Assembly" as SA
concise "Device State" as DS
binary "Reset Event" as RE


@0
DS is "Defined"
RE is 0
SA is "Inactive"
MK is "Active"

@10
DS is "Unknown"
RE is 1
MK is "Inactive"

@10.1
SA is "Active"


@11
RE is 0
SA is "Init Device"


@20
DS is "Defined"


@20.1
MK is "Active"
SA is Inactive

SA -> MK: Trigger Mikro Kernel
@enduml

'------------------------------------------------------------------------------------------------

'################################################################################################
'SW Component Diagrams
'################################################################################################
'------------------------------------------------------------------------------------------------
'SW Component Decomposition Diagram
'------------------------------------------------------------------------------------------------
@startuml SwComponentDecomposition.svg
!define sw_component(comp_name) component comp_name <<sw_component>>
!define sw_unit(unit_name) class unit_name << (U,#FF7700) sw_unit >>

sw_component(CompSN){
   sw_unit(UnitA)
   sw_unit(UnitB)
   sw_unit(UnitC)
}
@enduml

'------------------------------------------------------------------------------------------------
'SW Component Diagram - Required and Provided IFs
'------------------------------------------------------------------------------------------------

@startuml SwComponentDiagram.svg
!define sw_component(comp_name) component comp_name <<sw_component>>
!define sw_unit(unit_name) class unit_name << (U,#FF7700) sw_unit >>
!define provided_if(if_name) interface if_name <<provided_if>>
!define required_if(if_name) interface if_name <<required_if>>
!define function(fct_name) +fct_name()
!define variable(var_name) +var_name

sw_component(CompSN){
   sw_unit(UnitA)
   sw_unit(UnitB)
   sw_unit(UnitC)
}

sw_component(OS){

interface OS_IFs <<Required_IFs>>{
   function(OS_InitSp)
   function(OS_InitCsaList)
   variable(OS_INITIAL_PSW)
   }
}
OS_IFs -d-> UnitA


sw_component(RamInit){
interface RamInit_IFs <<Required_IFs>>{
   function(RamInit_Global)
   }
}
RamInit_IFs -d-> UnitB

sw_component(MCAL){
interface MCAL_IFs <<Required_IFs>>{
   function(Mcal_GetCpuIndex)
   }
}
MCAL_IFs -d-> UnitB

sw_component(MPU){
interface MPU_IFs <<Required_IFs>>{
   function(Mpu_Init)
   function(Mpu_Activate)
   function(Mpu_DeActivate)
   function(Mpu_GetDataProtection)
   }
}
MPU_IFs -d-> UnitB

interface Scheduling <<Provided_IFs>> {
   function(Startup_Init)
}
UnitB -d-> Scheduling
@enduml


'------------------------------------------------------------------------------------------------
' File Include Structure Diagram
'------------------------------------------------------------------------------------------------

@startuml SwComponentFileStructure.svg
!define sw_component(comp_name) component comp_name <<sw_component>>
sw_component(CompSN){

file "CompSN.h" as comp_header_file
file "CompSN_rif.h" as comp_rif_file
file "CompSN_pif.h" as comp_pif_file


file "CompSN_Cfg.h" as comp_cfg_header_file
file "CompSN_Cfg.c" as comp_cfg_source_file


file "UnitA.c" as unit_a_src_file
file "UnitB.c" as unit_b_src_file
file "UnitB.h" as unit_b_header_file
file "UnitC.c" as unit_c_src_file
file "UnitC.h" as unit_c_header_file
}
file "Base Types & \nOther SWC PIF Files" as comp_include_files
comp_include_files --[hidden] comp_pif_file

comp_rif_file -right-> comp_include_files: <<includes>>
comp_rif_file -right-> comp_pif_file: <<includes>>
comp_header_file -right-> comp_rif_file: <<includes>> 
comp_header_file -left-> comp_cfg_header_file: <<includes>> 

comp_cfg_source_file -up-> comp_header_file: <<includes>>

unit_a_src_file -up-> comp_header_file: <<includes>>

unit_b_src_file -up-> unit_b_header_file: <<includes>>
unit_b_header_file -up-> comp_header_file: <<includes>>

unit_c_src_file -up-> unit_c_header_file: <<includes>>
unit_c_header_file -up-> comp_header_file: <<includes>>

@enduml

'------------------------------------------------------------------------------------------------
' Data Structure Diagrams
'------------------------------------------------------------------------------------------------

@startuml SwComponentClassDiagram1.svg


class SwComp_BaseClass {
}

class SwComp_ErrorManager{
+SwComp_ErrorManager()
+\~SwComp_ErrorManager()
}

class SwComp_Class{
+SwComp_u_MemberFunction()
+r_GetInst()
+u_ConstantValue
-SwComp_Class()
-\~SwComp_Class()
}

SwComp_BaseClass <|-- SwComp_ErrorManager
SwComp_BaseClass <|-- SwComp_Class

@enduml

'################################################################################################
'State Diagrams
'################################################################################################

@startuml "UnitA_OpX_StateDiag.svg"

state SYS_PROCESS {
  State BASE_OM_COMPONENT_PROCESS {
  }

  [*] -down-> BASE_OM_RESET
  BASE_OM_RESET -down-> BASE_OM_COMPONENT_PROCESS : give condition for state change
  BASE_OM_COMPONENT_PROCESS -down-> BASE_OM_COMPONENT_PROCESS_FINAL : give condition for state change
  BASE_OM_COMPONENT_PROCESS -up-> BASE_OM_RESET : give condition for state change
  BASE_OM_COMPONENT_PROCESS_FINAL -up-> BASE_OM_COMPONENT_PROCESS : give condition for state change
  BASE_OM_COMPONENT_PROCESS_FINAL -up-> BASE_OM_RESET : give condition for state change

  ' Note for status BASE_OM_RESET
  note left of BASE_OM_RESET
  sets SRC_COMPONENT to a 
  predefined state
  end note

  ' Note for status BASE_OM_COMPONENT_PROCESS
  note left of BASE_OM_COMPONENT_PROCESS
  actions of this operation mode
  end note

  ' Note for status BASE_OM_COMPONENT_PROCESS_FINAL 
  note left of BASE_OM_COMPONENT_PROCESS_FINAL 
  next operations
  end note
}

[*] -right-> SYS_PROCESS

@enduml
'------------------------------------------------------------------------------------------------

@startuml "UnitB_OpX_StateDiag.svg"

state SYS_PROCESS {
  State BASE_OM_COMPONENT_PROCESS {
  }

  [*] -down-> BASE_OM_RESET
  BASE_OM_RESET -down-> BASE_OM_COMPONENT_PROCESS : give condition for state change
  BASE_OM_COMPONENT_PROCESS -down-> BASE_OM_COMPONENT_PROCESS_FINAL : give condition for state change
  BASE_OM_COMPONENT_PROCESS -up-> BASE_OM_RESET : give condition for state change
  BASE_OM_COMPONENT_PROCESS_FINAL -up-> BASE_OM_COMPONENT_PROCESS : give condition for state change
  BASE_OM_COMPONENT_PROCESS_FINAL -up-> BASE_OM_RESET : give condition for state change

  ' Note for status BASE_OM_RESET
  note left of BASE_OM_RESET
  sets SRC_COMPONENT to a 
  predefined state
  end note

  ' Note for status BASE_OM_COMPONENT_PROCESS
  note left of BASE_OM_COMPONENT_PROCESS
  actions of this operation mode
  end note

  ' Note for status BASE_OM_COMPONENT_PROCESS_FINAL 
  note left of BASE_OM_COMPONENT_PROCESS_FINAL 
  next operations
  end note
}

[*] -right-> SYS_PROCESS

@enduml
'------------------------------------------------------------------------------------------------

@startuml "UnitC_OpX_StateDiag.svg"

state SYS_PROCESS {
  State BASE_OM_COMPONENT_PROCESS {
  }

  [*] -down-> BASE_OM_RESET
  BASE_OM_RESET -down-> BASE_OM_COMPONENT_PROCESS : give condition for state change
  BASE_OM_COMPONENT_PROCESS -down-> BASE_OM_COMPONENT_PROCESS_FINAL : give condition for state change
  BASE_OM_COMPONENT_PROCESS -up-> BASE_OM_RESET : give condition for state change
  BASE_OM_COMPONENT_PROCESS_FINAL -up-> BASE_OM_COMPONENT_PROCESS : give condition for state change
  BASE_OM_COMPONENT_PROCESS_FINAL -up-> BASE_OM_RESET : give condition for state change

  ' Note for status BASE_OM_RESET
  note left of BASE_OM_RESET
  sets SRC_COMPONENT to a 
  predefined state
  end note

  ' Note for status BASE_OM_COMPONENT_PROCESS
  note left of BASE_OM_COMPONENT_PROCESS
  actions of this operation mode
  end note

  ' Note for status BASE_OM_COMPONENT_PROCESS_FINAL 
  note left of BASE_OM_COMPONENT_PROCESS_FINAL 
  next operations
  end note
}

[*] -right-> SYS_PROCESS

@enduml
'------------------------------------------------------------------------------------------------

'################################################################################################
'Activity Diagrams
'################################################################################################

@startuml "UnitA_OpZ_ActivityDiag.svg"
  title Main
  legend top
    **Thread context:**  Called by one single thread? Thread safe? Called by task or interrupt? Cycle Time?
    Give the name of the task / core / interrupt where the function is called from if possible
  endlegend 
  start
  if (condition?) then (yes)
  :alternative
  calculation;
  repeat
  :**FunctionY**;
  repeat while (x=y?)
  else (no)
  :**FunctionX**;
  :more calculation;
  endif
  :**FunctionZ**;
  stop
@enduml

'------------------------------------------------------------------------------------------------

@startuml "UnitB_OpZ_ActivityDiag.svg"
  title Main
  legend top
    **Thread context:**  Called by one single thread? Thread safe? Called by task or interrupt? Cycle Time?
    Give the name of the task / core / interrupt where the function is called from if possible
  endlegend 
  start
  if (condition?) then (yes)
  :alternative
  calculation;
  repeat
  :**FunctionY**;
  repeat while (x=y?)
  else (no)
  :**FunctionX**;
  :more calculation;
  endif
  :**FunctionZ**;
  stop
@enduml

'------------------------------------------------------------------------------------------------

@startuml "UnitC_OpZ_ActivityDiag.svg"
  title Main
  legend top
    **Thread context:**  Called by one single thread? Thread safe? Called by task or interrupt? Cycle Time?
    Give the name of the task / core / interrupt where the function is called from if possible
  endlegend 
  start
  if (condition?) then (yes)
  :alternative
  calculation;
  repeat
  :**FunctionY**;
  repeat while (x=y?)
  else (no)
  :**FunctionX**;
  :more calculation;
  endif
  :**FunctionZ**;
  stop
@enduml

'------------------------------------------------------------------------------------------------

'################################################################################################
'SW Unit Required IF Diagram
'################################################################################################
@startuml UnitA_ReqIFDiagram.svg
!define sw_component(comp_name) component comp_name <<sw_component>>
!define this_sw_unit(unit_name) class unit_name << (U,#FF7700) sw_unit >>  #palegreen
!define other_sw_unit(unit_name) class unit_name << (U,#FF7700) sw_unit >>
!define required_if(if_name) interface if_name <<required_if>>
!define function(fct_name) +fct_name()
!define variable(var_name) +var_name


sw_component(CompSN){
   this_sw_unit(UnitA)
   
   other_sw_unit(UnitC)
   interface UnitC_IFs <<Required_IFs>>{
   function(UnitC_Init)
   }
}

sw_component(X){
interface X_IFs <<Required_IFs>>{
   variable(INITIAL_A0)
   variable(INITIAL_A1)
   variable(INITIAL_A8)
   function(Entry2)
   function(X_InterruptTable)
   function(X_kernelStackTop)
   function(WriteEndinit)
   function(Startup)
   }
}
X_IFs -d-> UnitA

UnitC -d-> UnitC_IFs

UnitC_IFs -d-> UnitA
@enduml


'################################################################################################
'SW Unit Required IF Diagram
'################################################################################################
@startuml UnitB_ReqIFDiagram.svg
!define sw_component(comp_name) component comp_name <<sw_component>>
!define this_sw_unit(unit_name) class unit_name << (U,#FF7700) sw_unit >>  #palegreen
!define other_sw_unit(unit_name) class unit_name << (U,#FF7700) sw_unit >>
!define required_if(if_name) interface if_name <<required_if>>
!define function(fct_name) +fct_name()
!define variable(var_name) +var_name


sw_component(CompSN){
   this_sw_unit(UnitB)
   
   other_sw_unit(UnitC)
   interface UnitC_IFs <<Required_IFs>>{
   function(UnitC_Init)
   }
}

sw_component(X){
interface X_IFs <<Required_IFs>>{
   variable(INITIAL_A0)
   variable(INITIAL_A1)
   variable(INITIAL_A8)
   function(Entry2)
   function(X_InterruptTable)
   function(X_kernelStackTop)
   function(WriteEndinit)
   function(Startup)
   }
}
X_IFs -d-> UnitB

UnitC -d-> UnitC_IFs

UnitC_IFs -d-> UnitB
@enduml

'################################################################################################
'SW Unit Required IF Diagram
'################################################################################################
@startuml UnitC_ReqIFDiagram.svg
!define sw_component(comp_name) component comp_name <<sw_component>>
!define this_sw_unit(unit_name) class unit_name << (U,#FF7700) sw_unit >>  #palegreen
!define other_sw_unit(unit_name) class unit_name << (U,#FF7700) sw_unit >>
!define required_if(if_name) interface if_name <<required_if>>
!define function(fct_name) +fct_name()
!define variable(var_name) +var_name


sw_component(CompSN){
   this_sw_unit(UnitC)
   
   other_sw_unit(UnitA)
   interface UnitA_IFs <<Required_IFs>>{
   function(UnitA_Init)
   }
}

sw_component(X){
interface X_IFs <<Required_IFs>>{
   variable(INITIAL_A0)
   variable(INITIAL_A1)
   variable(INITIAL_A8)
   function(Entry2)
   function(X_InterruptTable)
   function(X_kernelStackTop)
   function(WriteEndinit)
   function(Startup)
   }
}
X_IFs -d-> UnitC

UnitA -d-> UnitA_IFs

UnitA_IFs -d-> UnitC
@enduml

'################################################################################################
'Sequence Diagrams
'################################################################################################

@startuml UnitA_OpY_SequenceDiag.svg
participant "Startup\n SchedulingIF\n Actor" as Startup_SchedulingIF_Actor
participant "Startup\n DataIF\n Actor" as Startup_DataIF_Actor



box #LightBlue
participant "Startup"
end box


Startup_SchedulingIF_Actor -> Startup: boot/bootAlt -> Startup_Init()
note right: boot/bootAlt are assembly symbols that trigger Startup_Init function

Startup -> MCAL: Mcal_GetCpuIndex()
MCAL --> Startup: CoreId = MasterCore

Startup -> MCU: Read Register SCU_RSTSTAT
MCU --> Startup: Return ResetType = WAKEUP_RESET

Startup -> MCU: Read Register PMS_PMSWSTAT2
MCU --> Startup: Return ResetSource

Startup -> MCU: Write Register PMS_PMSWSTATCLR
note right: Clear the reset source information after reading
MCU --> Startup: 


Startup --> Startup_SchedulingIF_Actor

Startup_DataIF_Actor -> Startup: Startup_GetResetReason()
Startup --> Startup_DataIF_Actor: Startup_ResetReasonType = STARTUP_WAKEUP_RESET

Startup_DataIF_Actor -> Startup: Startup_GetResetSource()
Startup --> Startup_DataIF_Actor: Startup_ResetSourceType
@enduml

'------------------------------------------------------------------------------------------------

@startuml UnitB_OpY_SequenceDiag.svg
participant "Startup\n SchedulingIF\n Actor" as Startup_SchedulingIF_Actor
participant "Startup\n DataIF\n Actor" as Startup_DataIF_Actor



box #LightBlue
participant "Startup"
end box


Startup_SchedulingIF_Actor -> Startup: boot/bootAlt -> Startup_Init()
note right: boot/bootAlt are assembly symbols that trigger Startup_Init function

Startup -> MCAL: Mcal_GetCpuIndex()
MCAL --> Startup: CoreId = MasterCore

Startup -> MCU: Read Register SCU_RSTSTAT
MCU --> Startup: Return ResetType = WAKEUP_RESET

Startup -> MCU: Read Register PMS_PMSWSTAT2
MCU --> Startup: Return ResetSource

Startup -> MCU: Write Register PMS_PMSWSTATCLR
note right: Clear the reset source information after reading
MCU --> Startup:  



Startup --> Startup_SchedulingIF_Actor

Startup_DataIF_Actor -> Startup: Startup_GetResetReason()
Startup --> Startup_DataIF_Actor: Startup_ResetReasonType = STARTUP_WAKEUP_RESET

Startup_DataIF_Actor -> Startup: Startup_GetResetSource()
Startup --> Startup_DataIF_Actor: Startup_ResetSourceType
@enduml

'------------------------------------------------------------------------------------------------

@startuml UnitC_OpY_SequenceDiag.svg
participant "Startup\n SchedulingIF\n Actor" as Startup_SchedulingIF_Actor
participant "Startup\n DataIF\n Actor" as Startup_DataIF_Actor



box #LightBlue
participant "Startup"
end box


Startup_SchedulingIF_Actor -> Startup: boot/bootAlt -> Startup_Init()
note right: boot/bootAlt are assembly symbols that trigger Startup_Init function

Startup -> MCAL: Mcal_GetCpuIndex()
MCAL --> Startup: CoreId = MasterCore

Startup -> MCU: Read Register SCU_RSTSTAT
MCU --> Startup: Return ResetType = WAKEUP_RESET

Startup -> MCU: Read Register PMS_PMSWSTAT2
MCU --> Startup: Return ResetSource

Startup -> MCU: Write Register PMS_PMSWSTATCLR
note right: Clear the reset source information after reading
MCU --> Startup: 


Startup --> Startup_SchedulingIF_Actor

Startup_DataIF_Actor -> Startup: Startup_GetResetReason()
Startup --> Startup_DataIF_Actor: Startup_ResetReasonType = STARTUP_WAKEUP_RESET

Startup_DataIF_Actor -> Startup: Startup_GetResetSource()
Startup --> Startup_DataIF_Actor: Startup_ResetSourceType
@enduml

'------------------------------------------------------------------------------------------------

@startuml OverallSequenceDiagramExample.svg

activate SwUnit_1
SwUnit_1 -> SwUnit_2: Init() calls SetCalibrationData()
deactivate SwUnit_1

alt if param1 != NULL && param2 != NULL
activate SwUnit_2
SwUnit_2 -->> SwUnit_1: result(ok)
else else if HW != available
SwUnit_2 -> SwUnit_2: SendHardwareError()
SwUnit_2 -->> SwUnit_1: result(nok)
rnote over SwUnit_1: hwErrorOccured
else else
SwUnit_2 -> SwUnit_2: SendError()
SwUnit_2 -->> SwUnit_1: result(nok)
deactivate SwUnit_2
activate SwUnit_1
rnote over SwUnit_1: errorOccured
end

loop while != errorOccured
SwUnit_1 -> SwUnit_2: Main()
deactivate SwUnit_1

activate SwUnit_2
SwUnit_2 -->> SwUnit_1: result
deactivate SwUnit_2
end

opt if errorOccured
activate SwUnit_1
SwUnit_1 -> SwUnit_4: callErrorHdl(errorId)
deactivate SwUnit_1
activate SwUnit_4
rnote over SwUnit_4: errorFlag = errorId
SwUnit_4 -->> SwUnit_3: errorFlag
SwUnit_4 -->> SwUnit_1: return
deactivate SwUnit_4
activate SwUnit_1
end

@enduml
'------------------------------------------------------------------------------------------------

@startuml SequenceDiagramExample.svg

legend center
**Legend of diagram:**  Text of the legend, aligned in the center of the diagram.
endlegend

opt if 1=1
activate SwUnit_3
SwUnit_3 -> SwDD_Template_SrcC: FunctionX() calls SwDD_Template_u_InterfaceFunc1()
deactivate SwUnit_3
activate SwDD_Template_SrcC
alt param1 != NULL && param2 != NULL
SwDD_Template_SrcC -> SwUnit_1: FunctionA(param1)
deactivate SwDD_Template_SrcC
activate SwUnit_1
SwUnit_1 -->> SwDD_Template_SrcC: result
deactivate SwUnit_1
activate SwDD_Template_SrcC
SwDD_Template_SrcC -> SwUnit_1: FunctionB(param2)
deactivate SwDD_Template_SrcC
activate SwUnit_1
SwUnit_1 -->> SwDD_Template_SrcC: result
deactivate SwUnit_1
activate SwDD_Template_SrcC
else else
loop 100 times
SwDD_Template_SrcC -> SwDD_Template_SrcC: FunctionC()
SwDD_Template_SrcC -->> SwDD_Template_SrcC: result
end
end
rnote over SwDD_Template_SrcC: u_DummyflagX = 0
SwDD_Template_SrcC -->> SwUnit_3: result
deactivate SwDD_Template_SrcC
activate SwUnit_3
end

@enduml
'------------------------------------------------------------------------------------------------
' Component Diagram
@startuml "ComponentDiagram_Example.svg"
skinparam componentStyle uml2
[SwDD_Template] as SRC
() "xxx_Cfg" as Port1
() "yyy_ScheduleCfg" as Port2
() "SwDD_Template_Ifc1" as Port3
() "SwDD_Template_Ifc2" as Port4
() "SwDD_Template_Ifc3" as Port5
SRC #-down- Port3: provide
SRC #-down- Port4: provide
SRC #-down- Port5: provide
SRC #-down-( Port1 : require
SRC #-down-( Port2 : require
legend
Required port: part of the SwDD_Template input parameters.
====
Provided port: part of the SwDD_Template output parameters.
end legend
@enduml
'------------------------------------------------------------------------------------------------

@startuml "ObjectDiagram.svg"
object ImageData {
	name = "ImageData"
}
object ImageBuffer {
	name = "ImageBuffer"
	type = "Pointer"
	Unit = "-"
	Resolution = "-"
	Offset = "-"
	Data range = "-"
}
object Height {
	name = "ImageHeigth"
	type = "uint32"
	Unit = "pixel"
	Resolution = "1:2"
	Offset = "0"
	Data range = "0-2048"
}
object Width {
	name = "ImageWidth"
	type = "uint32"
	Unit = "pixel"
	Resolution = "1:1"
	Offset = "0"
	Data range = "0-512"
}

ImageData "1" *-- "1" ImageBuffer
ImageData "1" <|-- "1" Height
ImageData "1" o-- "1" Width

@enduml
'------------------------------------------------------------------------------------------------
@startuml "ComponentDesign_Example.svg"  
skinparam componentStyle uml2
skinparam DefaultTextAlignment center

' create package external interfaces
' so create them outside of package
() "<size:12>IfcFunc1_1</size>" as IF1_1
() "<size:12>IfcFunc1_2</size>" as IF1_2
() "<size:12>CompExec</size>" as IF4_1

' create SwComp package
package "SwComp"{
' create units 1, 2 and 4
' units should be in one line, so add in together
together {
[SwUnit 2] as U2
[SwUnit 1] as U1
[SwUnit 4] as U4
}

' create package internal interface
' so add it in the package
() "<size:12>IfcFunc2_1</size>" as IF2_1

' create units 3 and 5
' units should be in one line, so add in together
together {
'create SwUnit3 with line break notation
component U3 [
  SwUnit 3
  --
  <i>configuration data</i>
  SwComp_t_Data1 
]
'create SwUnit5 within one line, but similar information then SWUnit 3
component "SwUnit 5\n--\n\n <i>Interrupt</i>\n SwComp_ISR" as U5
}

' create connections
U1 #-right( IF1_1: "<i><size:10>provided interface</size></i>"
U1 #-down-( IF1_2: "<i><size:10>provided interface</size></i>"

U2 #-down-( IF2_1: "<i><size:10>provided interface</size></i>"
U2 ..> IF1_2: "<i><size:10>use</size></i>"

U3 <.up. IF2_1: "<i><size:10>use</size></i>"

U4 #-left( IF4_1: "<i><size:10>provided interface</size></i>"
U4 ..> IF2_1: "<i><size:10>use</size></i>"

U5 .right.> U3: "<i><size:10>use</size></i>"
} 
@enduml
'------------------------------------------------------------------------------------------------

'------------------------------------------------------------------------------------------------
@startuml "Class_Example.svg"

component CompSN {

class SwComp_BaseClass {
}

class SwComp_ErrorManager{
+SwComp_ErrorManager()
+\~SwComp_ErrorManager()
}

class SwComp_Class{
+SwComp_u_MemberFunction()
+r_GetInst()
+u_ConstantValue
-SwComp_Class()
-\~SwComp_Class()
}

SwComp_BaseClass <|-- SwComp_ErrorManager
SwComp_BaseClass <|-- SwComp_Class
}
@enduml
'------------------------------------------------------------------------------------------------
@startuml "Usecase_Example.svg"
"SW Unit Verification" as SwU
"SW Integration" as SwI

SwU --> (Create SW Unit Tests)
SwU --> (Execute SW Unit Tests)
SwU -right-> (Read SW Detailed Design) : Internal SW

"Execute Integration Test (White Box)" as (WhiteBox)

SwI -left-> (Read SW Detailed Design) : Internal SW
SwI --> (Read Integration Manual) : Internal SW
SwI -right-> (Integrate Sw Component) : Internal SW
SwI --> (WhiteBox)
SwI --> (Configure the SW Component)
@enduml
'------------------------------------------------------------------------------------------------
@startuml "ComponentDesign_ExampleTwo.svg"
skinparam componentStyle uml2
skinparam DefaultTextAlignment center

package "SwIsrs"{
	component "SwUnit 5\n--\n\n <i>Interrupt</i>\n SwDD_Template_ISR" as U5
}

() "<i><size:12>IfcFunc3_1</size>" as IF1_1

package "SwDD_Template"{

component U1 [
SwUnit 3
--
<i>configuration data</i>
SwDD_Template_t_Data1 
]

[SwUnit 2] as U2
[SwUnit 4] as U3
[SwUnit 1] as U4

() "<size:12>IfcFunc2_1</size>" as IF2_1
() "<size:12>IfcFunc4_1</size>" as IF3_1
() "<size:12>IfcFunc1_1</size>" as IF4_1
() "<size:12>IfcFunc1_2</size>" as IF4_2

U1 #-right-( IF1_1: "<i><size:10>provided interface</size></i>"
U2 #--( IF2_1: "<i><size:10>provided interface</size></i>"
U3 #-left-( IF3_1: "<i><size:10>provided interface</size></i>"
U4 #--( IF4_1: "<i><size:10>provided interface</size></i>"
U4 #--( IF4_2: "<i><size:10>provided interface</size></i>"

U1 <.left. IF2_1 : "<i><size:10>use</size></i>"
U1 ..> IF3_1 : "<i><size:10>use</size></i>"
U2 ..> IF4_1 : "<i><size:10>use</size></i>"
U3 ..> IF4_2 : "<i><size:10>use</size></i>"
} 

U5 ..> IF1_1 : "<i><size:10>use</size></i>"

@enduml
